<svg xmlns="http://www.w3.org/2000/svg" viewBox="0 0 900 1125" role="img" aria-labelledby="title desc">
  <title id="title">Karate dojo hero artwork</title>
  <desc id="desc">A stylized karate dojo scene with a red rising sun, mountains, and a training silhouette.</desc>
  <defs>
    <linearGradient id="bg" x1="0" y1="0" x2="1" y2="1">
      <stop offset="0" stop-color="#3a221c"/>
      <stop offset="0.55" stop-color="#19110f"/>
      <stop offset="1" stop-color="#0b0908"/>
    </linearGradient>
    <linearGradient id="floor" x1="0" y1="0" x2="0" y2="1">
      <stop offset="0" stop-color="#6b4a36"/>
      <stop offset="1" stop-color="#241512"/>
    </linearGradient>
    <filter id="shadow" x="-20%" y="-20%" width="140%" height="140%">
      <feDropShadow dx="0" dy="28" stdDeviation="26" flood-color="#000" flood-opacity="0.45"/>
    </filter>
  </defs>
  <rect width="900" height="1125" fill="url(#bg)"/>
  <circle cx="450" cy="272" r="155" fill="#c72d22"/>
  <path d="M0 442 C150 336 274 384 393 458 C516 535 641 493 900 356 L900 655 L0 655 Z" fill="#221716" opacity="0.88"/>
  <path d="M0 520 C162 420 293 467 421 544 C561 628 693 595 900 471 L900 694 L0 694 Z" fill="#100d0c" opacity="0.95"/>
  <rect x="74" y="666" width="752" height="282" rx="28" fill="url(#floor)" filter="url(#shadow)"/>
  <path d="M130 714 H770 M166 770 H734 M202 826 H698 M238 882 H662" stroke="#c99a68" stroke-width="8" opacity="0.32"/>
  <path d="M450 515 L505 646 L632 666 L540 759 L562 890 L450 826 L338 890 L360 759 L268 666 L395 646 Z" fill="#f4efe8" opacity="0.08"/>
  <g fill="#f4efe8">
    <circle cx="450" cy="608" r="34"/>
    <path d="M410 650 H490 L521 814 H477 L462 724 H438 L423 814 H379 Z"/>
    <path d="M408 668 L277 754 L248 719 L390 631 Z"/>
    <path d="M492 668 L623 754 L652 719 L510 631 Z"/>
    <path d="M425 812 L356 938 L313 915 L384 790 Z"/>
    <path d="M475 812 L544 938 L587 915 L516 790 Z"/>
  </g>
</svg>
